<svg width="387" height="289" viewBox="0 0 387 289" fill="none" xmlns="http://www.w3.org/2000/svg">
<path d="M156.358 288.045C168.345 287.661 179.169 287.43 188.56 287.291C197.951 287.151 205.915 287.113 212.168 287.103C247.931 287.06 274.754 287.022 292.941 287.017C311.127 287.012 320.677 287.017 321.893 287.103C330.352 287.584 335.634 287.747 339.724 287.536C343.353 287.359 346.947 286.745 350.428 285.705C366.182 281.326 374.665 269.022 379.318 254.436C383.97 239.849 384.797 222.979 385.234 209.478C385.34 206.162 385.503 201.087 385.498 195.156C385.494 189.225 385.306 182.444 384.725 175.715C383.624 163.046 382.254 147.286 378.034 131.772C373.815 116.258 366.74 101.012 354.239 89.338C345.448 81.1435 335.879 76.5007 323.864 73.4199C311.848 70.3391 297.372 68.8156 278.782 66.8595C262.408 65.0923 245.881 65.2811 229.552 67.4218C220.465 68.6067 211.49 70.5356 202.719 73.1892C198.648 74.434 194.856 75.5923 191.064 77.0101C187.046 78.4964 183.149 80.2929 179.409 82.3835C164.563 90.6982 154.148 102.483 146.861 114.104C139.575 125.726 135.427 137.131 133.106 144.725L129.021 161.724L124.94 178.728L107.782 157.644L90.653 136.578L64.6995 159.701L38.7461 182.818L40.6686 185.279C41.279 186.048 41.8413 186.769 42.3604 187.428L43.1726 188.471C43.6532 189.081 44.278 189.884 44.8596 190.633C46.782 193.104 56.8751 208.027 68.7031 224.32C80.5311 240.613 93.9981 258.276 102.692 266.235C103.317 266.807 104.158 267.552 105.221 268.369C106.444 269.311 107.729 270.172 109.065 270.945C110.721 271.881 112.449 272.685 114.232 273.348C118.05 274.865 122.112 275.673 126.219 275.732C133.607 275.651 140.75 273.069 146.482 268.407C152.528 263.495 156.83 256.765 158.752 249.216C158.355 255.685 157.957 262.156 157.56 268.628L156.358 288.045Z" fill="#104FC1" stroke="black" stroke-width="1.44186" stroke-miterlimit="10" stroke-linecap="round"/>
<path d="M228.33 119.333L220.246 203.22L212.172 287.103H240.961H269.745L249.035 203.22L228.33 119.333Z" fill="#FFF8F8" stroke="black" stroke-width="1.44186" stroke-miterlimit="10" stroke-linecap="round"/>
<path d="M218.172 100.455L223.247 109.894L228.332 119.333L231.74 108.692L235.147 98.0515L226.66 99.253L218.172 100.455Z" fill="#FFF8F8" stroke="black" stroke-width="1.44186" stroke-miterlimit="10" stroke-linecap="round"/>
<path d="M124.926 178.704L132.02 187.874L139.114 197.045C139.161 197.106 139.228 197.148 139.303 197.164C139.379 197.179 139.457 197.168 139.525 197.13C139.592 197.093 139.644 197.033 139.671 196.961C139.698 196.889 139.698 196.809 139.671 196.737C137.749 191.524 135.839 186.309 133.942 181.093C132.045 175.876 130.136 170.663 128.213 165.453L126.57 172.076L124.926 178.704Z" fill="black" stroke="black" stroke-width="1.44186" stroke-miterlimit="10" stroke-linecap="round"/>
<path d="M163.475 176.45C162.696 189.03 161.919 201.606 161.144 214.179C160.368 226.752 159.591 239.328 158.812 251.907" stroke="black" stroke-width="1.44186" stroke-miterlimit="10" stroke-linecap="round"/>
<path d="M202.705 73.1841L196.116 75.2796L193.861 76.0005C193.861 76.0005 193.213 85.2861 192.271 98.8011C191.329 112.316 190.084 130.065 188.906 146.998L208.612 133.165L228.317 119.333L215.509 96.2634L202.705 73.1841Z" fill="#104FC1" stroke="black" stroke-width="1.44186" stroke-miterlimit="10" stroke-linecap="round"/>
<path d="M247.034 65.8693L237.681 92.6157C234.567 101.526 231.449 110.437 228.328 119.348L252.532 132.027L276.736 144.71C275.458 139.995 270.094 120.198 265.043 101.594L255.267 65.5472L251.21 65.7107L247.034 65.8693Z" fill="#104FC1" stroke="black" stroke-width="1.44186" stroke-miterlimit="10" stroke-linecap="round"/>
<path d="M255.198 38.2094L241.63 41.6698L228.062 45.1303C229.212 48.7224 230.827 52.1481 232.869 55.3194C237.261 62.1831 243.77 67.4287 251.411 70.2619C253.566 71.0608 255.787 71.6687 258.048 72.0786C258.94 69.1019 259.526 66.0422 259.798 62.9468C260.309 57.0462 259.707 51.1021 258.024 45.4235C257.284 42.9446 256.339 40.5316 255.198 38.2094Z" fill="black" stroke="black" stroke-width="1.44186" stroke-miterlimit="10" stroke-linecap="round"/>
<path d="M246.422 67.9792C245.523 67.4985 244.816 67.0179 244.268 66.6623C243.72 66.3066 243.307 65.9894 243.057 65.7731L242.514 65.3213L242.101 64.9561L242.471 64.9801H242.903H243.273C243.499 64.9801 243.797 64.9561 244.095 64.9176C245.732 64.7468 247.303 64.1814 248.673 63.2698C250.044 62.3583 251.172 61.1278 251.962 59.684C252.752 58.2403 253.18 56.6264 253.208 54.9809C253.237 53.3355 252.866 51.7076 252.128 50.237C251.389 48.7665 250.304 47.4972 248.967 46.5381C247.629 45.579 246.079 44.9589 244.449 44.7308C242.82 44.5028 241.159 44.6736 239.609 45.2288C238.06 45.784 236.669 46.7068 235.555 47.9181C233.895 49.7061 232.9 52.0106 232.738 54.4449C232.258 53.8297 231.777 53.128 231.296 52.3398C230.76 51.4855 230.269 50.6031 229.826 49.6964C229.422 48.8649 229.081 48.0575 228.792 47.2933C228.504 46.5291 228.273 45.8082 228.081 45.1449L204.925 51.0469L181.773 56.9489C181.773 57.8669 181.797 58.7897 181.85 59.7173C181.903 60.6449 181.98 61.5773 182.091 62.5145C183.484 74.2753 189.088 84.4067 197.023 91.2796C204.959 98.1524 215.215 101.776 225.928 100.507C233.454 99.6045 240.511 96.3752 246.114 91.27C251.782 86.0898 255.925 79.4584 258.096 72.0933C256.678 71.829 255.274 71.4921 253.89 71.084C252.65 70.7139 251.583 70.3342 250.699 69.9833C250.218 69.7911 249.579 69.5316 248.863 69.2047C248.147 68.8779 247.291 68.455 246.422 67.9792Z" fill="#FFC0C0" stroke="black" stroke-width="1.44186" stroke-miterlimit="10" stroke-linecap="round"/>
<path d="M237.431 67.412C237.579 68.663 237.289 69.9266 236.609 70.9874C235.93 72.0483 234.904 72.8409 233.706 73.2301C232.508 73.6193 231.212 73.5811 230.039 73.1219C228.866 72.6628 227.888 71.8112 227.273 70.7121C226.657 69.613 226.442 68.3345 226.663 67.0944C226.884 65.8543 227.529 64.7293 228.486 63.911C229.444 63.0927 230.656 62.6318 231.915 62.6067C233.175 62.5817 234.404 62.9941 235.394 63.7737C235.957 64.2154 236.427 64.7644 236.777 65.3889C237.126 66.0134 237.349 66.701 237.431 67.412Z" fill="#EF3F3F" stroke="black" stroke-width="1.44186" stroke-miterlimit="10" stroke-linecap="round"/>
<path d="M209.638 88.4149C209.786 89.666 209.496 90.9295 208.816 91.9904C208.137 93.0513 207.111 93.8438 205.913 94.233C204.715 94.6222 203.419 94.584 202.246 94.1249C201.073 93.6657 200.095 92.8141 199.48 91.715C198.864 90.616 198.649 89.3375 198.87 88.0974C199.091 86.8573 199.736 85.7322 200.693 84.9139C201.651 84.0956 202.863 83.6347 204.122 83.6097C205.382 83.5847 206.611 83.9971 207.601 84.7767C208.163 85.2191 208.633 85.7683 208.982 86.3926C209.332 87.017 209.555 87.7042 209.638 88.4149Z" fill="#EF3F3F" stroke="black" stroke-width="1.44186" stroke-miterlimit="10" stroke-linecap="round"/>
<path d="M200.581 75.9238C200.626 76.2154 200.612 76.5131 200.54 76.7993C200.468 77.0854 200.339 77.354 200.16 77.5891C199.982 77.8243 199.758 78.0211 199.502 78.1677C199.246 78.3144 198.963 78.408 198.67 78.4429C198.377 78.4778 198.08 78.4533 197.797 78.3708C197.513 78.2884 197.25 78.1497 197.021 77.963C196.792 77.7763 196.604 77.5455 196.467 77.2843C196.329 77.0231 196.246 76.737 196.221 76.4429C196.176 76.1513 196.19 75.8536 196.262 75.5674C196.334 75.2813 196.463 75.0127 196.642 74.7775C196.82 74.5424 197.044 74.3456 197.3 74.199C197.556 74.0523 197.839 73.9587 198.132 73.9238C198.425 73.8889 198.722 73.9134 199.005 73.9959C199.289 74.0783 199.553 74.217 199.781 74.4037C200.01 74.5904 200.198 74.8212 200.336 75.0824C200.473 75.3435 200.556 75.6297 200.581 75.9238Z" fill="black"/>
<path d="M220.495 64.4465C220.546 64.8779 220.468 65.3146 220.271 65.7017C220.074 66.0887 219.766 66.4086 219.388 66.621C219.009 66.8333 218.575 66.9286 218.142 66.8947C217.709 66.8609 217.296 66.6994 216.955 66.4307C216.614 66.162 216.36 65.7981 216.225 65.3852C216.091 64.9722 216.082 64.5286 216.199 64.1105C216.317 63.6924 216.556 63.3185 216.886 63.0361C217.216 62.7537 217.622 62.5756 218.053 62.5241C218.34 62.4899 218.63 62.5124 218.908 62.5906C219.186 62.6687 219.446 62.8008 219.672 62.9793C219.899 63.1579 220.089 63.3793 220.23 63.6311C220.371 63.8828 220.461 64.1599 220.495 64.4465Z" fill="black"/>
<path d="M194.949 64.2592C196.506 62.8614 198.16 61.5765 199.9 60.4142C205.3 56.7922 211.447 54.4333 217.884 53.5125" stroke="black" stroke-width="1.44186" stroke-miterlimit="10" stroke-linecap="round"/>
<path d="M200.383 60.8755L205.078 70.1707L209.779 79.461L211.033 78.692L212.288 77.9279" stroke="black" stroke-width="1.44186" stroke-miterlimit="10" stroke-linecap="round"/>
<path d="M215.812 15.3032C205.955 16.4759 197.438 21.5801 191.387 29.0441C185.088 36.9625 181.695 46.8019 181.775 56.92L218.499 47.5672L255.223 38.2095C251.623 30.7878 245.946 24.5703 238.882 20.3112C231.958 16.1344 223.845 14.3731 215.812 15.3032Z" fill="#F9851C" stroke="black" stroke-width="1.44186" stroke-miterlimit="10" stroke-linecap="round"/>
<path d="M240.133 58.5493L242.983 55.5454L245.838 52.5368" stroke="black" stroke-width="1.44186" stroke-miterlimit="10" stroke-linecap="round"/>
<path d="M195.696 53.3732C196.893 57.2335 196.903 61.364 195.725 65.23C194.615 68.9128 192.33 72.1305 189.217 74.3907C188.05 75.2277 186.776 75.9064 185.43 76.4093C181.127 77.9975 176.375 77.8545 172.175 76.0104C170.033 75.0665 168.129 73.6576 166.601 71.886C165.072 70.1144 163.957 68.0246 163.336 65.7684C162.957 64.3833 162.78 62.9506 162.812 61.5149C162.922 58.381 163.897 55.3387 165.629 52.7243C167.393 50.0809 169.954 48.0191 173.131 47.3654C175.053 46.9958 177.038 47.1198 178.899 47.7259C180.121 48.1142 181.289 48.6569 182.373 49.3408C182.248 50.0761 182.133 50.8547 182.037 51.667C181.941 52.4792 181.869 53.3299 181.816 54.2143C181.792 54.6949 181.773 55.1755 181.763 55.6177C181.753 56.0598 181.763 56.5212 181.763 56.9538L188.737 55.1755L195.696 53.3732Z" fill="black" stroke="black" stroke-width="1.44186" stroke-miterlimit="10" stroke-linecap="round"/>
<path d="M183.777 43.3667L216.181 35.8594L248.589 28.3522" stroke="black" stroke-width="1.44186" stroke-miterlimit="10" stroke-linecap="round"/>
<path d="M193.578 41.0982L194.318 47.3174L195.054 53.5366" stroke="black" stroke-width="1.44186" stroke-miterlimit="10" stroke-linecap="round"/>
<path d="M206.398 38.219L207.095 44.1018L207.792 49.9798" stroke="black" stroke-width="1.44186" stroke-miterlimit="10" stroke-linecap="round"/>
<path d="M222.051 34.7539L222.733 40.5309L223.421 46.308" stroke="black" stroke-width="1.44186" stroke-miterlimit="10" stroke-linecap="round"/>
<path d="M237.98 31.0482L238.624 36.5128L239.273 41.9775" stroke="black" stroke-width="1.44186" stroke-miterlimit="10" stroke-linecap="round"/>
<path d="M226.943 75.6644C226.814 75.489 226.649 75.343 226.459 75.2361C226.269 75.1293 226.059 75.0639 225.842 75.0444C225.627 75.0223 225.41 75.047 225.205 75.1166C225 75.1863 224.812 75.2994 224.655 75.4481L222.045 77.8896C221.18 78.7067 220.312 79.5205 219.44 80.3312C218.969 82.2154 218.847 84.1703 219.08 86.0986C219.24 87.5808 219.563 89.041 220.041 90.453C221.305 90.462 222.558 90.2203 223.728 89.7417C224.88 89.2715 225.911 88.5451 226.741 87.6174C228.115 86.0214 228.876 83.9891 228.889 81.8836C228.934 79.6541 228.25 77.4709 226.943 75.6644Z" fill="#EF3F3F" stroke="black" stroke-width="1.44186" stroke-miterlimit="10" stroke-linecap="round"/>
<path d="M213.618 85.7957C213.46 85.9462 213.335 86.1285 213.252 86.3306C213.169 86.5327 213.13 86.7501 213.138 86.9684C213.14 87.1876 213.19 87.4036 213.284 87.6018C213.378 87.8 213.513 87.9758 213.681 88.1171C215.472 89.6249 217.736 90.4551 220.078 90.4625C219.599 89.0505 219.277 87.5903 219.116 86.1081C218.883 84.1797 219.005 82.2249 219.477 80.3406L216.564 83.0754L213.618 85.7957Z" fill="black" stroke="black" stroke-width="1.44186" stroke-miterlimit="10" stroke-linecap="round"/>
<path d="M208.664 185.639C208.658 186.246 208.442 186.832 208.053 187.297C207.663 187.761 207.124 188.077 206.528 188.188C205.932 188.3 205.315 188.202 204.784 187.91C204.252 187.617 203.838 187.15 203.613 186.587C203.388 186.024 203.365 185.4 203.549 184.822C203.732 184.243 204.11 183.747 204.619 183.417C205.128 183.086 205.736 182.943 206.338 183.011C206.941 183.079 207.502 183.354 207.924 183.789C208.406 184.283 208.673 184.949 208.664 185.639Z" fill="black" stroke="black" stroke-width="1.44186" stroke-miterlimit="10" stroke-linecap="round"/>
<path d="M204.329 235.874C204.329 236.305 204.223 236.73 204.021 237.11C203.818 237.49 203.524 237.815 203.166 238.054C202.808 238.294 202.396 238.442 201.967 238.484C201.538 238.527 201.106 238.463 200.707 238.298C200.309 238.133 199.958 237.872 199.684 237.539C199.411 237.206 199.224 236.81 199.14 236.388C199.056 235.965 199.078 235.528 199.203 235.116C199.329 234.703 199.554 234.328 199.859 234.024C200.225 233.658 200.692 233.409 201.199 233.308C201.707 233.208 202.233 233.259 202.711 233.457C203.189 233.655 203.598 233.991 203.886 234.421C204.174 234.851 204.328 235.356 204.329 235.874Z" fill="black" stroke="black" stroke-width="1.44186" stroke-miterlimit="10" stroke-linecap="round"/>
<path d="M321.895 287.103C304.848 285.522 288.906 254.901 277.198 224.622C265.49 194.343 258.117 164.516 258.117 164.516L290.006 149.271L321.895 134.03L335.833 167.376L349.771 200.716" stroke="black" stroke-width="1.44186" stroke-miterlimit="10" stroke-linecap="round"/>
<path d="M277.875 114.777L262.236 113.008L246.578 111.24C245.974 111.171 245.39 110.985 244.859 110.691C244.327 110.397 243.859 110.002 243.481 109.527C243.102 109.052 242.821 108.507 242.653 107.924C242.485 107.34 242.434 106.729 242.502 106.126L246.227 73.1409L249.952 40.156C250.09 38.9376 250.707 37.8239 251.665 37.059C252.624 36.2941 253.846 35.9405 255.065 36.0755L270.709 37.825L286.363 39.5937C286.967 39.6618 287.551 39.8481 288.082 40.142C288.614 40.4358 289.082 40.8315 289.46 41.3064C289.839 41.7813 290.12 42.326 290.288 42.9096C290.456 43.4932 290.507 44.1041 290.439 44.7075L286.714 77.7164L282.989 110.706C282.921 111.31 282.735 111.894 282.441 112.425C282.147 112.956 281.751 113.425 281.277 113.803C280.802 114.182 280.257 114.463 279.673 114.631C279.09 114.799 278.479 114.85 277.875 114.782V114.777Z" fill="#D1B7E5" stroke="black" stroke-width="1.44186" stroke-miterlimit="10" stroke-linecap="round"/>
<path d="M283.181 52.0227C283.184 52.7661 282.93 53.4876 282.461 54.0646C281.993 54.6416 281.338 55.0384 280.61 55.1875C279.882 55.3366 279.125 55.2288 278.467 54.8824C277.809 54.536 277.292 53.9724 277.003 53.2875C276.714 52.6026 276.671 51.8388 276.882 51.1259C277.093 50.4131 277.544 49.7953 278.159 49.3777C278.774 48.96 279.514 48.7683 280.255 48.8352C280.995 48.9021 281.689 49.2235 282.219 49.7446C282.522 50.0421 282.763 50.3966 282.928 50.7876C283.093 51.1785 283.179 51.5983 283.181 52.0227Z" fill="black" stroke="black" stroke-width="1.44186" stroke-miterlimit="10" stroke-linecap="round"/>
<path d="M282.001 63.639C282.005 64.3849 281.751 65.1093 281.281 65.6887C280.811 66.2682 280.155 66.6669 279.425 66.8169C278.694 66.967 277.934 66.8591 277.274 66.5117C276.614 66.1643 276.094 65.5988 275.804 64.9116C275.514 64.2244 275.472 63.4579 275.683 62.7426C275.895 62.0274 276.348 61.4076 276.965 60.9889C277.583 60.5702 278.326 60.3785 279.069 60.4463C279.812 60.5141 280.508 60.8373 281.039 61.3609C281.342 61.6587 281.582 62.0133 281.747 62.4042C281.912 62.7951 281.998 63.2147 282.001 63.639Z" fill="black" stroke="black" stroke-width="1.44186" stroke-miterlimit="10" stroke-linecap="round"/>
<path d="M290.783 51.6046C291.087 51.2546 291.444 50.9545 291.841 50.7155C292.23 50.4834 292.661 50.3315 293.11 50.2685C293.341 50.2444 293.575 50.2444 293.806 50.2685C294.367 50.3255 294.912 50.4886 295.412 50.7491C297.815 51.9987 299.069 56.2426 299.708 60.1789C300.102 62.6778 300.327 65.2003 300.381 67.7294C300.435 73.5643 300.917 79.3874 301.823 85.1519C302.679 90.7655 303.866 96.4608 305.24 103.06C305.24 103.06 305.447 104.021 306.898 108.736C308.35 113.451 311.065 121.876 316.064 136.833C313.642 137.986 311.214 139.145 308.782 140.308L301.487 143.802C295.601 146.634 289.736 149.468 283.891 152.304C278.047 155.14 272.23 157.982 266.44 160.83C258.904 151.698 252.502 143.528 247.513 136.934C242.524 130.34 238.915 125.25 236.968 122.246C236.101 120.844 235.341 119.379 234.695 117.863C233.599 115.291 232.576 111.975 232.883 108.971C232.952 108.292 233.066 107.617 233.224 106.953C233.364 106.366 233.518 105.881 233.642 105.511C232.824 104.687 232.124 103.754 231.561 102.738C230.504 100.888 230.023 98.7637 230.182 96.6387C230.281 95.4421 230.585 94.2715 231.081 93.1782C231.418 92.4373 231.834 91.7347 232.321 91.0827C231.927 90.4698 231.622 89.8049 231.412 89.1074C230.97 87.7075 230.963 86.2064 231.392 84.8025C231.821 83.3985 232.666 82.1578 233.816 81.2444C234.432 80.7277 235.124 80.308 235.868 79.9996C235.4 78.7821 235.292 77.456 235.555 76.1787C235.794 74.9729 236.412 73.8749 237.319 73.0451C238.409 72.0958 239.811 71.5823 241.255 71.6032C242.8 71.609 244.296 72.1394 245.499 73.1075C245.687 73.2564 245.865 73.4169 246.033 73.5882C246.206 73.7612 246.364 73.9438 246.513 74.1313C247.943 75.8297 249.497 77.4201 251.161 78.8894C253.233 80.7167 255.473 82.3437 257.851 83.7484C262.86 86.6803 268.396 88.5991 274.144 89.3957C277.863 89.9224 281.631 90.0144 285.372 89.6697C286.333 82.0134 286.785 78.005 287.034 75.9095C287.284 73.814 287.289 73.6362 287.289 73.6362C287.457 71.0505 287.679 68.6378 288.005 65.7396C288.332 62.8415 288.75 59.4916 289.317 54.9786C289.391 54.3549 289.553 53.7448 289.798 53.1667C290.043 52.5977 290.375 52.0706 290.783 51.6046Z" fill="#FFC0C0" stroke="black" stroke-width="1.44186" stroke-miterlimit="10" stroke-linecap="round"/>
<path d="M235.855 79.9801C238.03 83.0651 240.422 85.9915 243.012 88.737C247.371 93.375 253.302 98.5416 259.569 100.632" stroke="black" stroke-width="1.44186" stroke-miterlimit="10" stroke-linecap="round"/>
<path d="M232.328 91.0633C234.534 94.0018 236.904 96.8132 239.427 99.4837C243.613 103.915 249.068 108.793 254.148 110.572" stroke="black" stroke-width="1.44186" stroke-miterlimit="10" stroke-linecap="round"/>
<path d="M233.648 105.491C233.648 105.491 236.085 108.284 239.416 111.504C242.747 114.724 246.909 118.362 250.398 120.059" stroke="black" stroke-width="1.44186" stroke-miterlimit="10" stroke-linecap="round"/>
<path d="M145.552 1H77.6018C75.4942 1.00254 73.4737 1.84089 71.9835 3.33115C70.4932 4.8214 69.6549 6.8419 69.6523 8.94944V46.7982C69.6523 48.9065 70.4899 50.9285 71.9807 52.4193C73.4715 53.9101 75.4935 54.7477 77.6018 54.7477H108.534L117.762 63.9707L126.985 73.189L125.356 63.9707L123.727 54.7477H145.552C147.66 54.7477 149.682 53.9101 151.173 52.4193C152.664 50.9285 153.501 48.9065 153.501 46.7982V8.94944C153.499 6.8419 152.66 4.8214 151.17 3.33115C149.68 1.84089 147.659 1.00254 145.552 1Z" fill="#14AF6C" stroke="black" stroke-width="1.44186" stroke-miterlimit="10" stroke-linecap="round"/>
<path d="M97.0492 29.4865C97.0503 30.6464 96.6492 31.7707 95.9143 32.6679C95.1794 33.5652 94.1561 34.1798 93.0187 34.4071C91.8814 34.6344 90.7005 34.4603 89.6771 33.9145C88.6538 33.3686 87.8514 32.4849 87.4066 31.4137C86.9619 30.3425 86.9023 29.1503 87.2381 28.0402C87.5739 26.93 88.2843 25.9707 89.2481 25.3256C90.212 24.6805 91.3697 24.3896 92.524 24.5024C93.6783 24.6152 94.7578 25.1248 95.5785 25.9444C96.0447 26.4089 96.4147 26.9609 96.6671 27.5688C96.9194 28.1767 97.0493 28.8284 97.0492 29.4865Z" fill="#F7CE21" stroke="black" stroke-width="1.44186" stroke-miterlimit="10" stroke-linecap="round"/>
<path d="M136.116 29.4864C136.109 30.6441 135.702 31.7638 134.962 32.6545C134.222 33.5453 133.197 34.152 132.06 34.3712C130.923 34.5904 129.745 34.4086 128.728 33.8567C127.71 33.3048 126.915 32.4171 126.479 31.3447C126.042 30.2724 125.991 29.0819 126.334 27.9761C126.677 26.8704 127.393 25.9177 128.36 25.2807C129.326 24.6437 130.484 24.3616 131.636 24.4826C132.787 24.6036 133.861 25.1201 134.674 25.9442C135.135 26.411 135.5 26.964 135.747 27.5718C135.995 28.1796 136.12 28.8302 136.116 29.4864Z" fill="#F7CE21" stroke="black" stroke-width="1.44186" stroke-miterlimit="10" stroke-linecap="round"/>
<path d="M116.608 29.4865C116.607 30.6438 116.205 31.7651 115.47 32.6592C114.735 33.5533 113.713 34.1651 112.578 34.3903C111.443 34.6154 110.265 34.4401 109.244 33.8941C108.224 33.3481 107.424 32.4652 106.982 31.3958C106.539 30.3264 106.481 29.1367 106.817 28.0293C107.153 26.9218 107.863 25.9652 108.826 25.3223C109.788 24.6794 110.943 24.39 112.095 24.5035C113.247 24.6169 114.324 25.1261 115.142 25.9443C116.081 26.8842 116.608 28.1582 116.608 29.4865Z" fill="#F7CE21" stroke="black" stroke-width="1.44186" stroke-miterlimit="10" stroke-linecap="round"/>
<path d="M41.8715 114.945C40.1054 113.205 38.5208 111.291 37.1422 109.23C35.9215 107.438 34.9939 105.818 34.172 104.573C31.6028 100.694 29.2381 96.6837 27.0877 92.5578C24.9339 88.4353 23.0725 84.1665 21.5173 79.7829C21.1374 78.6224 20.6314 77.5071 20.0082 76.457C19.1894 74.9903 17.8987 73.8436 16.3458 73.2032C15.9594 73.0593 15.5579 72.9593 15.1491 72.9053C14.4818 72.8143 13.8026 72.8784 13.1641 73.0927C12.1723 73.4496 11.327 74.1259 10.761 75.0152C10.1122 76.0275 9.71813 77.1818 9.61236 78.3795C8.95997 78.501 8.32861 78.7163 7.73794 79.0187C7.33113 79.2261 6.95038 79.481 6.60368 79.7781C5.40823 80.8553 4.62488 82.315 4.38803 83.9066C4.09269 85.7478 4.25781 87.6335 4.86865 89.3953C4.5975 89.5359 4.33724 89.6965 4.09004 89.8759C3.86317 90.0453 3.64948 90.2317 3.45082 90.4334C1.09098 92.7981 1.23036 96.8737 2.00896 100.483C2.58034 102.978 3.4032 105.407 4.46492 107.736L5.25314 109.447C5.51267 110.014 5.77702 110.586 6.03655 111.158C5.8055 111.282 5.58383 111.424 5.37329 111.581C5.10213 111.785 4.85108 112.016 4.62353 112.268C3.77283 113.229 2.87408 114.94 3.32586 118.583C3.77764 122.226 5.58477 127.792 10.1314 136.438C13.4138 142.627 17.0751 148.608 21.0944 154.346C27.415 163.365 34.3186 171.961 41.761 180.079L66.1812 158.321L90.6544 136.578C82.5511 120.054 75.5918 105.852 70.526 95.5088C65.4603 85.1659 62.2978 78.6775 61.774 77.5625C61.7034 77.411 61.6248 77.2634 61.5385 77.1203C60.8758 75.9899 59.9147 75.0637 58.7605 74.4432C57.9844 74.0399 57.1072 73.8728 56.2372 73.9626C55.9556 73.9944 55.6784 74.0573 55.4106 74.1501C54.8909 74.3151 54.4091 74.5814 53.9927 74.9335C52.5509 76.159 52.2289 77.8701 52.3682 79.6387C52.5862 81.376 53.0039 83.0822 53.613 84.7237C55.4967 90.3747 56.957 96.1581 57.9819 102.026C59.169 109.437 59.1786 116.829 55.3 119.232C54.6325 119.626 53.8853 119.866 53.1132 119.934C52.3568 119.999 51.5963 119.999 50.8399 119.934C49.4754 119.841 48.1465 119.457 46.9421 118.809C45.0703 117.779 43.3615 116.476 41.8715 114.945Z" fill="#FFC0C0" stroke="black" stroke-width="1.44186" stroke-miterlimit="10" stroke-linecap="round"/>
<path d="M6.0625 111.177C6.0625 111.177 7.83599 116.017 10.3881 121.549C12.9402 127.081 16.194 133.3 19.2074 136.064" stroke="black" stroke-width="1.44186" stroke-miterlimit="10" stroke-linecap="round"/>
<path d="M4.88281 89.4101C4.88281 89.4101 8.70374 98.9215 13.2312 108.717C17.7586 118.512 22.9829 128.571 25.7705 129.672" stroke="black" stroke-width="1.44186" stroke-miterlimit="10" stroke-linecap="round"/>
<path d="M9.61719 78.3942C9.61719 78.3942 13.2603 88.4535 17.9704 99.0608C22.6804 109.668 28.4623 120.833 32.735 123.039" stroke="black" stroke-width="1.44186" stroke-miterlimit="10" stroke-linecap="round"/>
<path d="M269.781 203.889V245.496V287.103H319.126C317.742 287.103 316.32 286.353 314.988 285.407C313.657 284.46 312.417 283.306 311.403 282.523C305.583 277.894 300.791 272.021 296.662 265.663C292.534 259.304 289.069 252.45 285.911 245.871C283.921 241.728 282.316 238.037 280.821 234.336C279.326 230.635 277.937 226.934 276.39 222.772C275.477 220.326 274.467 217.485 273.333 214.347C272.199 211.209 271.026 207.681 269.781 203.889Z" fill="black" stroke="black" stroke-width="1.44186" stroke-miterlimit="10" stroke-linecap="round"/>
</svg>
