<svg width="132" height="57" viewBox="0 0 132 57" fill="none" xmlns="http://www.w3.org/2000/svg">
<rect y="0.328613" width="52.0906" height="56.3429" rx="10.6307" fill="#2148C0"/>
<path d="M10.9844 11.313H22.6956V33.2716C22.6956 39.7395 17.4523 44.9828 10.9844 44.9828V11.313Z" fill="white"/>
<circle cx="33.1875" cy="18.8765" r="7.56351" fill="white"/>
<path d="M75.3679 38.5V22.5539H70.4437V19.4922H83.7109V22.5539H78.8633V38.5H75.3679ZM84.0278 38.5V24.6205H87.166V27.7077L86.9109 27.2484C87.2341 26.2109 87.7358 25.488 88.4162 25.0798C89.1136 24.6715 89.947 24.4674 90.9165 24.4674H91.733V27.427H90.5338C89.5813 27.427 88.8159 27.7247 88.2376 28.32C87.6593 28.8983 87.3701 29.7148 87.3701 30.7693V38.5H84.0278ZM93.5706 38.5V24.6205H96.9129V38.5H93.5706ZM93.5706 23.0642V19.4922H96.9129V23.0642H93.5706ZM99.9988 43.6028V24.6205H103.137V27.376L102.831 26.6871C103.307 25.9387 103.953 25.3604 104.77 24.9522C105.586 24.527 106.53 24.3143 107.602 24.3143C108.912 24.3143 110.094 24.6375 111.148 25.2839C112.203 25.9302 113.036 26.7977 113.649 27.8863C114.278 28.9749 114.593 30.1995 114.593 31.5603C114.593 32.904 114.287 34.1286 113.674 35.2342C113.062 36.3398 112.228 37.2158 111.174 37.8622C110.119 38.4915 108.92 38.8062 107.576 38.8062C106.573 38.8062 105.646 38.6106 104.795 38.2193C103.962 37.8111 103.299 37.2328 102.805 36.4844L103.341 35.8211V43.6028H99.9988ZM107.194 35.7445C107.959 35.7445 108.639 35.5659 109.235 35.2087C109.83 34.8515 110.289 34.3583 110.613 33.7289C110.953 33.0996 111.123 32.3767 111.123 31.5603C111.123 30.7438 110.953 30.0294 110.613 29.4171C110.289 28.7878 109.83 28.2945 109.235 27.9373C108.639 27.5631 107.959 27.376 107.194 27.376C106.462 27.376 105.799 27.5546 105.204 27.9118C104.625 28.269 104.166 28.7708 103.826 29.4171C103.503 30.0464 103.341 30.7608 103.341 31.5603C103.341 32.3767 103.503 33.0996 103.826 33.7289C104.166 34.3583 104.625 34.8515 105.204 35.2087C105.799 35.5659 106.462 35.7445 107.194 35.7445ZM118.576 44.1385C118.201 44.1385 117.836 44.1045 117.479 44.0365C117.121 43.9855 116.798 43.8919 116.509 43.7558V40.9493C116.73 41.0003 116.994 41.0514 117.3 41.1024C117.623 41.1534 117.921 41.1789 118.193 41.1789C118.958 41.1789 119.511 41.0003 119.851 40.6432C120.209 40.286 120.523 39.8182 120.795 39.2399L121.714 37.0967L121.663 39.9033L115.616 24.6205H119.213L123.449 35.8976H122.173L126.383 24.6205H130.006L123.959 39.9033C123.602 40.8047 123.168 41.5702 122.658 42.1995C122.148 42.8288 121.552 43.3051 120.872 43.6283C120.209 43.9684 119.443 44.1385 118.576 44.1385Z" fill="#2148C0"/>
</svg>
