<svg width="61" height="60" viewBox="0 0 61 60" fill="none" xmlns="http://www.w3.org/2000/svg">
<path d="M5.5 32.75L11.75 29C15.6 26.7 20.4 26.7 24.25 29C28.1 31.3 32.9 31.3 36.75 29C40.6 26.7 45.4 26.7 49.25 29L55.5 32.75" stroke="currentColor" stroke-width="2.25" stroke-miterlimit="10" stroke-linecap="round" stroke-linejoin="round"/>
<path d="M5.5 9.75L11.75 13.5C15.6 15.8 20.4 15.8 24.25 13.5C28.1 11.2 32.9 11.2 36.75 13.5C40.6 15.8 45.4 15.8 49.25 13.5L55.5 9.75" stroke="currentColor" stroke-width="2.25" stroke-miterlimit="10" stroke-linecap="round" stroke-linejoin="round"/>
<path d="M5.5 50.25L11.75 46.5C15.6 44.2 20.4 44.2 24.25 46.5C28.1 48.8 32.9 48.8 36.75 46.5C40.6 44.2 45.4 44.2 49.25 46.5L55.5 50.25" stroke="currentColor" stroke-width="2.25" stroke-miterlimit="10" stroke-linecap="round" stroke-linejoin="round"/>
</svg>
