<svg width="61" height="60" viewBox="0 0 61 60" fill="none" xmlns="http://www.w3.org/2000/svg">
<path d="M51.1751 46.7001C48.7001 48.9751 45.4501 50.2251 42.0751 50.2001H14.3501C2.6751 49.3501 2.6501 32.3501 14.3501 31.5001H14.4751C7.7251 12.6501 30.8001 3.35012 40.5001 15.0751V15.1001C42.2501 17.2501 43.5751 20.1001 44.1751 23.7251C47.5001 24.1501 50.2001 25.7751 52.1251 28.0751C56.5001 33.2501 56.8751 41.7001 51.1751 46.7001Z" stroke="#292D32" stroke-width="2.25" stroke-miterlimit="10" stroke-linecap="round" stroke-linejoin="round"/>
<path d="M18.6501 32.525C17.3501 31.875 15.9251 31.525 14.4751 31.5" stroke="#292D32" stroke-width="2.25" stroke-miterlimit="10" stroke-linecap="round" stroke-linejoin="round"/>
<path d="M40.125 24.7999C41.425 24.1499 42.85 23.7999 44.3 23.7749" stroke="#292D32" stroke-width="2.25" stroke-miterlimit="10" stroke-linecap="round" stroke-linejoin="round"/>
<path d="M55.425 21.25C55.425 24 54.15 26.475 52.125 28.075C50.2 25.775 47.5 24.15 44.175 23.725C43.575 20.1 42.25 17.25 40.5 15.1V15.075C42.075 13.475 44.275 12.5 46.675 12.5C51.5 12.5 55.425 16.425 55.425 21.25Z" stroke="#292D32" stroke-width="2.25" stroke-miterlimit="10" stroke-linecap="round" stroke-linejoin="round"/>
</svg>
