<svg width="106" height="105" viewBox="0 0 106 105" fill="none" xmlns="http://www.w3.org/2000/svg">
<rect x="0.662109" y="0.5" width="104" height="104" rx="52" fill="white"/>
<path d="M53.4411 53.82C53.2778 53.7966 53.0678 53.7966 52.8811 53.82C48.7745 53.68 45.5078 50.32 45.5078 46.19C45.5078 41.9666 48.9145 38.5366 53.1611 38.5366C57.3845 38.5366 60.8145 41.9666 60.8145 46.19C60.7911 50.32 57.5478 53.68 53.4411 53.82Z" fill="#2148C0" stroke="#2148C0" stroke-width="1.5" stroke-linecap="round" stroke-linejoin="round"/>
<path d="M68.8889 69.2201C64.7355 73.0235 59.2289 75.3335 53.1622 75.3335C47.0955 75.3335 41.5889 73.0235 37.4355 69.2201C37.6689 67.0268 39.0689 64.8801 41.5655 63.2001C47.9589 58.9535 58.4122 58.9535 64.7589 63.2001C67.2555 64.8801 68.6555 67.0268 68.8889 69.2201Z" fill="#2148C0" stroke="#2148C0" stroke-width="1.5" stroke-linecap="round" stroke-linejoin="round"/>
<path d="M53.1615 75.3332C66.0481 75.3332 76.4948 64.8865 76.4948 51.9998C76.4948 39.1132 66.0481 28.6665 53.1615 28.6665C40.2748 28.6665 29.8281 39.1132 29.8281 51.9998C29.8281 64.8865 40.2748 75.3332 53.1615 75.3332Z" stroke="#2148C0" stroke-width="1.5" stroke-linecap="round" stroke-linejoin="round"/>
<rect x="0.662109" y="0.5" width="104" height="104" rx="52" stroke="#C7C7C7"/>
</svg>
